# xmcd
#
# Track frame offsets: 
#        150
#        21550
#        45145
#        59735
#        78250
#        92992
#        118772
#        141167
#
# Disc length: 2160 seconds
#
# Revision: 0
# Processed by: cddbd v1.5.2PL0 Copyright (c) Steve Scherf et al.
# Submitted via: ExactAudioCopy v0.99pb4
#
DISCID=6b086e08
DTITLE=The Grateful Dead - Workingman's Dead
DYEAR=1970
DGENRE=Blues
TTITLE0=Uncle John's Band
TTITLE1=High Time
TTITLE2=Dire Wolf
TTITLE3=New Speedway Boogie
TTITLE4=Cumberland Blues
TTITLE5=Black Peter
TTITLE6=Easy Wind
TTITLE7=Casey Jones
EXTD=
EXTT0=
EXTT1=
EXTT2=
EXTT3=
EXTT4=
EXTT5=
EXTT6=
EXTT7=
PLAYORDER=
